<svg xmlns:xlink="http://www.w3.org/1999/xlink" xmlns="http://www.w3.org/2000/svg" viewBox="0 0 21 20" class="p-svg-icon c-social-buttons__svg" width="21"  height="20" >
<path d="M18.4,12.9c-0.3,0-0.6,0.3-0.6,0.6V17c0,1-0.8,1.8-1.8,1.8H3c-1,0-1.8-0.8-1.8-1.8V4C1.2,3,2,2.2,3,2.2h8.4
  c0.3,0,0.6-0.3,0.6-0.6S11.7,1,11.3,1H3C1.3,1,0,2.3,0,4V17c0,1.6,1.3,3,3,3H16c1.6,0,3-1.3,3-3v-3.5C19,13.2,18.7,12.9,18.4,12.9z" fill="#7D7D7D"></path>
<path d="M20.9,5.3C20.9,5.3,20.9,5.3,20.9,5.3c0-0.1,0-0.1,0-0.1c0,0,0,0,0-0.1c0,0,0,0,0-0.1c0,0,0,0,0-0.1c0,0,0,0,0,0
  c0,0,0,0,0,0c0,0,0,0,0,0l-4.6-4.6c-0.2-0.2-0.6-0.2-0.8,0s-0.2,0.6,0,0.8l3.3,3.3c-2.1-0.3-5.5-0.3-8.5,1.5
  C7.6,7.5,5.9,10,5.2,13.5c-0.1,0.3,0.1,0.6,0.5,0.7c0,0,0.1,0,0.1,0c0.3,0,0.5-0.2,0.6-0.5c0.6-3.1,2.1-5.4,4.3-6.8
  c3-1.8,6.7-1.5,8.5-1.2l-3.8,3.9c-0.2,0.2-0.2,0.6,0,0.8c0.1,0.1,0.3,0.2,0.4,0.2s0.3-0.1,0.4-0.2l4.6-4.6c0,0,0,0,0,0
  c0,0,0,0,0-0.1c0,0,0,0,0,0c0,0,0,0,0-0.1c0,0,0,0,0-0.1c0,0,0,0,0,0c0,0,0,0,0,0c0,0,0,0,0-0.1C20.9,5.4,20.9,5.4,20.9,5.3
  C20.9,5.4,20.9,5.4,20.9,5.3z" fill="#7D7D7D"></path>
</svg>